Coordinates
version=1
nRows=8
nColumns=33
inDegrees=yes

Units are S.I. units (second, meters, Newtons, ...)
Angles are in degrees.

endheader
time	ground_thorax_rot_x	ground_thorax_rot_y	ground_thorax_rot_z	ground_thorax_tx	ground_thorax_ty	ground_thorax_tz	clav_prot_r	clav_elev_r	scapula_abduction_r	scapula_elevation_r	scapula_upward_rot_r	scapula_winging_r	shoulder_elv_r	plane_of_elev_r	axial_rot_r	elbow_flexion_r	pro_sup_r	wrist_flex_r	wrist_dev_r	clav_prot_l	clav_elev_l	scapula_abduction_l	scapula_elevation_l	scapula_upward_rot_l	scapula_winging_l	shoulder_elv_l	plane_of_elev_l	axial_rot_l	elbow_flexion_l	pro_sup_l	wrist_flex_l	wrist_dev_l
      6.90000000	     23.19941759	     32.77049992	     53.84421454	     38.13580875	    784.99096180	    -36.28095287	     12.73477792	     35.12593455	     27.35425612	     45.00000000	    -45.00000000	   1719.49548006	   1511.17414673	     22.79814666	    179.99999979	   2882.73134124	    191.03238837	     12.67765947	     13.82219604	    -14.64338906	    -45.00000000	    -33.41682310	     45.00000000	    -31.27162629	   2985.30260103	  -4419.99804937	    141.02677968	    179.99999979	   2155.59332862	   -315.21979708	     14.99354860	    -18.39208851
      6.91000000	     22.98327900	     32.85783068	     54.11893440	     40.32252315	    783.17288789	    -36.00451563	     12.73592051	     35.15705636	     27.08903222	     45.00000000	    -45.00000000	   1719.79652830	   1511.22057743	     22.80854314	    179.99999979	   2882.96242039	    191.69428735	     12.55791950	     13.71905659	    -14.78096487	    -45.00000000	    -32.99700662	     45.00000000	    -32.04173996	   2985.14566779	  -4420.05668490	    140.97838650	    179.99999979	   2155.46153483	   -315.17935794	     14.90878285	    -18.17412954
      6.92000000	     22.69776513	     33.00794139	     54.46717814	     42.41931865	    781.40390331	    -35.73131475	     12.66723979	     35.13590455	     26.89027675	     45.00000000	    -45.00000000	   1720.00291879	   1511.20070602	     22.68408852	    179.99999979	   2883.07365286	    192.26554593	     12.48827990	     13.65375358	    -14.94284930	    -45.00000000	    -32.62552207	     45.00000000	    -32.85643381	   2984.93767494	  -4420.13002741	    140.91002549	    179.99999979	   2155.43504484	   -315.17443912	     14.79224626	    -17.99021160
      6.93000000	     22.47687989	     33.08594851	     54.78605318	     44.42498512	    779.68500845	    -35.45880982	     12.62950704	     35.15923115	     26.73727293	     45.00000000	    -45.00000000	   1720.24404125	   1511.18928851	     22.61311246	    179.99999979	   2883.24190224	    192.80937903	     12.40281145	     13.57010953	    -15.09146712	    -45.00000000	    -32.23849005	     45.00000000	    -33.69336169	   2984.74020965	  -4420.21044792	    140.87975737	    179.99999979	   2155.33506993	   -315.16251188	     14.70707570	    -17.80729447
      6.94000000	     22.29925960	     33.18284418	     54.98442400	     46.33431829	    778.02096981	    -35.18639474	     12.57872682	     35.19428094	     26.57091913	     45.00000000	    -45.00000000	   1720.43901379	   1511.16520628	     22.55900694	    179.99999979	   2883.40702083	    193.32284777	     12.33011666	     13.51330989	    -15.24998833	    -45.00000000	    -31.85585774	     45.00000000	    -34.34693607	   2984.55321200	  -4420.31418872	    140.80147468	    179.99999979	   2155.31664662	   -315.17959212	     14.63034058	    -17.67917312
      6.95000000	     22.21599744	     33.20403399	     55.07361574	     48.14623874	    776.41420163	    -34.91552519	     12.58666713	     35.27382494	     26.39731920	     45.00000000	    -45.00000000	   1720.61593089	   1511.15037043	     22.64455848	    179.99999979	   2883.59776849	    193.82746063	     12.25505632	     13.46268010	    -15.36164522	    -45.00000000	    -31.48110079	     45.00000000	    -34.94082862	   2984.41206982	  -4420.40773558	    140.71352438	    179.99999979	   2155.24196558	   -315.19121658	     14.61769589	    -17.58505694
      6.96000000	     21.97385753	     33.32923019	     55.38495470	     49.85645139	    774.87304169	    -34.65069355	     12.49025939	     35.20289801	     26.18613041	     45.00000000	    -45.00000000	   1720.82983112	   1511.16365397	     22.51396915	    179.99999979	   2883.71541886	    194.20714232	     12.18954623	     13.43782764	    -15.49892486	    -45.00000000	    -31.15261221	     45.00000000	    -35.83551743	   2984.21693423	  -4420.46744173	    140.67056838	    179.99999979	   2155.22829907	   -315.20084017	     14.50486124	    -17.45246320
      6.97000000	     21.75940787	     33.45137932	     55.61795755	     51.46779893	    773.40155469	    -34.39685707	     12.44754080	     35.20898333	     26.00120223	     45.00000000	    -45.00000000	   1721.04350395	   1511.16204721	     22.37063193	    179.99999979	   2883.85085300	    194.53254459	     12.11501669	     13.34343711	    -15.67115596	    -45.00000000	    -30.79390842	     45.00000000	    -36.56946975	   2983.99060570	  -4420.51230771	    140.63385878	    179.99999979	   2155.22233467	   -315.21058001	     14.35583053	    -17.27736176
